HIERARCHY
ROOT mixamorig:Hips
{
	OFFSET 0.000000 104.274902 0.000000
	CHANNELS 6 Xposition Yposition Zposition Xrotation Yrotation Zrotation
	JOINT mixamorig:Spine
	{
		OFFSET 0.000000 10.181549 0.131524
		CHANNELS 6 Xposition Yposition Zposition Xrotation Yrotation Zrotation
		JOINT mixamorig:Spine1
		{
			OFFSET 0.000000 9.893990 -1.470706
			CHANNELS 3 Xrotation Yrotation Zrotation
			JOINT mixamorig:Spine2
			{
				OFFSET 0.000000 9.220787 -1.370637
				CHANNELS 3 Xrotation Yrotation Zrotation
				JOINT mixamorig:Neck
				{
					OFFSET 0.000000 16.740372 -2.049022
					CHANNELS 6 Xposition Yposition Zposition Xrotation Yrotation Zrotation
					JOINT mixamorig:Head
					{
						OFFSET 0.000000 9.617859 1.684976
						CHANNELS 6 Xposition Yposition Zposition Xrotation Yrotation Zrotation
						JOINT mixamorig:HeadTop_End
						{
							OFFSET 0.000000 22.037384 7.501072
							CHANNELS 6 Xposition Yposition Zposition Xrotation Yrotation Zrotation
							End Site
							{
								OFFSET 0.000000 23.106567 -2.828246
							}
						}
					}
				}
				JOINT mixamorig:RightShoulder
				{
					OFFSET -4.570000 11.014877 -2.160840
					CHANNELS 6 Xposition Yposition Zposition Xrotation Yrotation Zrotation
					JOINT mixamorig:RightArm
					{
						OFFSET -10.592867 -0.524796 -2.232105
						CHANNELS 3 Xrotation Yrotation Zrotation
						JOINT mixamorig:RightForeArm
						{
							OFFSET -27.841497 0.000000 -0.000002
							CHANNELS 3 Xrotation Yrotation Zrotation
							JOINT mixamorig:RightHand
							{
								OFFSET -28.328812 0.000000 -0.000001
								CHANNELS 3 Xrotation Yrotation Zrotation
								JOINT mixamorig:RightHandThumb1
								{
									OFFSET -2.464798 -1.573990 2.681911
									CHANNELS 6 Xposition Yposition Zposition Xrotation Yrotation Zrotation
									JOINT mixamorig:RightHandThumb2
									{
										OFFSET -3.244781 -1.873383 1.873376
										CHANNELS 3 Xrotation Yrotation Zrotation
										JOINT mixamorig:RightHandThumb3
										{
											OFFSET -2.646263 -1.527817 1.527818
											CHANNELS 6 Xposition Yposition Zposition Xrotation Yrotation Zrotation
											JOINT mixamorig:RightHandThumb4
											{
												OFFSET -1.994591 -1.151581 1.151575
												CHANNELS 6 Xposition Yposition Zposition Xrotation Yrotation Zrotation
												End Site
												{
													OFFSET -1.860176 -1.142715 1.365483
												}
											}
										}
									}
								}
								JOINT mixamorig:RightHandIndex1
								{
									OFFSET -9.108299 -0.517883 2.259803
									CHANNELS 6 Xposition Yposition Zposition Xrotation Yrotation Zrotation
									JOINT mixamorig:RightHandIndex2
									{
										OFFSET -3.699997 0.000000 0.000000
										CHANNELS 3 Xrotation Yrotation Zrotation
										JOINT mixamorig:RightHandIndex3
										{
											OFFSET -2.850006 0.000000 0.000000
											CHANNELS 3 Xrotation Yrotation Zrotation
											JOINT mixamorig:RightHandIndex4
											{
												OFFSET -2.772194 0.000000 0.000000
												CHANNELS 3 Xrotation Yrotation Zrotation
												End Site
												{
													OFFSET -2.772202 0.000000 -0.000484
												}
											}
										}
									}
								}
								JOINT mixamorig:RightHandMiddle1
								{
									OFFSET -9.532501 0.000000 -0.000000
									CHANNELS 6 Xposition Yposition Zposition Xrotation Yrotation Zrotation
									JOINT mixamorig:RightHandMiddle2
									{
										OFFSET -3.699997 0.000000 0.000000
										CHANNELS 3 Xrotation Yrotation Zrotation
										JOINT mixamorig:RightHandMiddle3
										{
											OFFSET -2.949997 0.000000 0.000000
											CHANNELS 3 Xrotation Yrotation Zrotation
											JOINT mixamorig:RightHandMiddle4
											{
												OFFSET -2.946594 0.000000 0.000000
												CHANNELS 3 Xrotation Yrotation Zrotation
												End Site
												{
													OFFSET -2.946602 0.000000 -0.000982
												}
											}
										}
									}
								}
								JOINT mixamorig:RightHandRing1
								{
									OFFSET -9.103600 -0.043106 -1.865100
									CHANNELS 6 Xposition Yposition Zposition Xrotation Yrotation Zrotation
									JOINT mixamorig:RightHandRing2
									{
										OFFSET -3.379303 0.000000 0.000000
										CHANNELS 3 Xrotation Yrotation Zrotation
										JOINT mixamorig:RightHandRing3
										{
											OFFSET -2.889694 0.000000 0.000000
											CHANNELS 3 Xrotation Yrotation Zrotation
											JOINT mixamorig:RightHandRing4
											{
												OFFSET -2.638802 0.000000 0.000000
												CHANNELS 3 Xrotation Yrotation Zrotation
												End Site
												{
													OFFSET -2.638802 0.000000 0.004218
												}
											}
										}
									}
								}
								JOINT mixamorig:RightHandPinky1
								{
									OFFSET -8.076698 -0.486725 -3.806299
									CHANNELS 6 Xposition Yposition Zposition Xrotation Yrotation Zrotation
									JOINT mixamorig:RightHandPinky2
									{
										OFFSET -3.600006 0.000000 0.000000
										CHANNELS 3 Xrotation Yrotation Zrotation
										JOINT mixamorig:RightHandPinky3
										{
											OFFSET -2.099998 0.000000 0.000000
											CHANNELS 3 Xrotation Yrotation Zrotation
											JOINT mixamorig:RightHandPinky4
											{
												OFFSET -2.115791 0.000000 0.000000
												CHANNELS 3 Xrotation Yrotation Zrotation
												End Site
												{
													OFFSET -2.115799 0.000000 0.000174
												}
											}
										}
									}
								}
							}
						}
					}
				}
				JOINT mixamorig:LeftShoulder
				{
					OFFSET 4.570400 11.014679 -2.160816
					CHANNELS 6 Xposition Yposition Zposition Xrotation Yrotation Zrotation
					JOINT mixamorig:LeftArm
					{
						OFFSET 10.592373 -0.524597 -2.232116
						CHANNELS 3 Xrotation Yrotation Zrotation
						JOINT mixamorig:LeftForeArm
						{
							OFFSET 27.841488 0.000000 0.000001
							CHANNELS 3 Xrotation Yrotation Zrotation
							JOINT mixamorig:LeftHand
							{
								OFFSET 28.328808 0.000000 -0.000000
								CHANNELS 3 Xrotation Yrotation Zrotation
								JOINT mixamorig:LeftHandThumb1
								{
									OFFSET 2.466103 -1.576202 2.681698
									CHANNELS 6 Xposition Yposition Zposition Xrotation Yrotation Zrotation
									JOINT mixamorig:LeftHandThumb2
									{
										OFFSET 3.243317 -1.872528 1.872530
										CHANNELS 3 Xrotation Yrotation Zrotation
										JOINT mixamorig:LeftHandThumb3
										{
											OFFSET 2.647881 -1.528763 1.528754
											CHANNELS 6 Xposition Yposition Zposition Xrotation Yrotation Zrotation
											JOINT mixamorig:LeftHandThumb4
											{
												OFFSET 1.998924 -1.154083 1.154080
												CHANNELS 6 Xposition Yposition Zposition Xrotation Yrotation Zrotation
												End Site
												{
													OFFSET 1.884041 -1.149155 1.337651
												}
											}
										}
									}
								}
								JOINT mixamorig:LeftHandIndex1
								{
									OFFSET 9.109299 -0.518005 2.259900
									CHANNELS 6 Xposition Yposition Zposition Xrotation Yrotation Zrotation
									JOINT mixamorig:LeftHandIndex2
									{
										OFFSET 3.699997 0.000000 0.000000
										CHANNELS 3 Xrotation Yrotation Zrotation
										JOINT mixamorig:LeftHandIndex3
										{
											OFFSET 2.850006 0.000000 0.000000
											CHANNELS 3 Xrotation Yrotation Zrotation
											JOINT mixamorig:LeftHandIndex4
											{
												OFFSET 2.774895 0.000000 0.000000
												CHANNELS 3 Xrotation Yrotation Zrotation
												End Site
												{
													OFFSET 2.774902 0.000000 -0.000072
												}
											}
										}
									}
								}
								JOINT mixamorig:LeftHandMiddle1
								{
									OFFSET 9.533401 0.000000 0.000000
									CHANNELS 6 Xposition Yposition Zposition Xrotation Yrotation Zrotation
									JOINT mixamorig:LeftHandMiddle2
									{
										OFFSET 3.699997 0.000000 0.000000
										CHANNELS 3 Xrotation Yrotation Zrotation
										JOINT mixamorig:LeftHandMiddle3
										{
											OFFSET 2.949997 0.000000 0.000000
											CHANNELS 3 Xrotation Yrotation Zrotation
											JOINT mixamorig:LeftHandMiddle4
											{
												OFFSET 2.952896 0.000000 0.000000
												CHANNELS 3 Xrotation Yrotation Zrotation
												End Site
												{
													OFFSET 2.952904 0.000000 0.000165
												}
											}
										}
									}
								}
								JOINT mixamorig:LeftHandRing1
								{
									OFFSET 9.104500 -0.042999 -1.865101
									CHANNELS 6 Xposition Yposition Zposition Xrotation Yrotation Zrotation
									JOINT mixamorig:LeftHandRing2
									{
										OFFSET 3.149994 0.000000 0.000000
										CHANNELS 3 Xrotation Yrotation Zrotation
										JOINT mixamorig:LeftHandRing3
										{
											OFFSET 2.950005 0.000000 0.000000
											CHANNELS 3 Xrotation Yrotation Zrotation
											JOINT mixamorig:LeftHandRing4
											{
												OFFSET 2.644302 0.000000 0.000000
												CHANNELS 3 Xrotation Yrotation Zrotation
												End Site
												{
													OFFSET 2.644302 0.000000 0.000083
												}
											}
										}
									}
								}
								JOINT mixamorig:LeftHandPinky1
								{
									OFFSET 8.077805 -0.486893 -3.806302
									CHANNELS 6 Xposition Yposition Zposition Xrotation Yrotation Zrotation
									JOINT mixamorig:LeftHandPinky2
									{
										OFFSET 3.600006 0.000000 0.000000
										CHANNELS 3 Xrotation Yrotation Zrotation
										JOINT mixamorig:LeftHandPinky3
										{
											OFFSET 2.099998 0.000000 0.000000
											CHANNELS 3 Xrotation Yrotation Zrotation
											JOINT mixamorig:LeftHandPinky4
											{
												OFFSET 2.125496 0.000000 0.000000
												CHANNELS 3 Xrotation Yrotation Zrotation
												End Site
												{
													OFFSET 2.125504 0.000000 -0.001254
												}
											}
										}
									}
								}
							}
						}
					}
				}
			}
		}
	}
	JOINT mixamorig:RightUpLeg
	{
		OFFSET -8.207800 -6.751701 -1.599544
		CHANNELS 6 Xposition Yposition Zposition Xrotation Yrotation Zrotation
		JOINT mixamorig:RightLeg
		{
			OFFSET 0.000004 -44.370152 0.345934
			CHANNELS 3 Xrotation Yrotation Zrotation
			JOINT mixamorig:RightFoot
			{
				OFFSET 0.000004 -44.423664 -3.043535
				CHANNELS 3 Xrotation Yrotation Zrotation
				JOINT mixamorig:RightToeBase
				{
					OFFSET 0.000001 -8.728691 10.710592
					CHANNELS 3 Xrotation Yrotation Zrotation
					JOINT mixamorig:RightToe_End
					{
						OFFSET 0.000000 -0.000665 9.278101
						CHANNELS 3 Xrotation Yrotation Zrotation
						End Site
						{
							OFFSET 0.000000 -0.000665 9.278103
						}
					}
				}
			}
		}
	}
	JOINT mixamorig:LeftUpLeg
	{
		OFFSET 8.207800 -6.751701 -1.599544
		CHANNELS 6 Xposition Yposition Zposition Xrotation Yrotation Zrotation
		JOINT mixamorig:LeftLeg
		{
			OFFSET 0.000004 -44.370037 0.346940
			CHANNELS 3 Xrotation Yrotation Zrotation
			JOINT mixamorig:LeftFoot
			{
				OFFSET 0.000004 -44.423611 -3.044388
				CHANNELS 3 Xrotation Yrotation Zrotation
				JOINT mixamorig:LeftToeBase
				{
					OFFSET 0.000001 -8.728690 10.710592
					CHANNELS 3 Xrotation Yrotation Zrotation
					JOINT mixamorig:LeftToe_End
					{
						OFFSET 0.000000 -0.000680 9.278101
						CHANNELS 3 Xrotation Yrotation Zrotation
						End Site
						{
							OFFSET 0.000000 -0.000680 9.278101
						}
					}
				}
			}
		}
	}
}
MOTION
Frames: 4
Frame Time: 0.033333
-0.239939 61.673782 2.955914 -6.557781 -1.034350 1.153377 -0.000000 10.181560 0.131526 9.622516 -0.264879 -1.703969 2.373022 0.151407 -0.565807 2.372856 0.180186 -0.525035 0.000000 16.740364 -2.049018 -3.624652 -0.861737 -0.138286 -0.000001 9.617836 1.684977 -7.131920 -3.084047 -3.336167 0.000001 22.037369 7.501075 -0.000002 -0.000000 -0.000000 -4.569995 11.014869 -2.160841 3.556138 0.139613 14.188871 0.345918 44.865423 48.974423 -0.000025 46.289783 0.000044 27.878206 10.046903 -39.346469 -2.464801 -1.573991 2.681907 -10.137772 -0.567487 -18.098637 4.406532 -24.485823 34.293123 -2.646273 -1.527807 1.527814 -6.560210 -38.123773 -11.416074 -1.994595 -1.151586 1.151567 -0.000001 -0.000004 0.000002 -9.108303 -0.517887 2.259804 2.905099 1.076296 13.026615 0.454125 -2.007702 25.488263 0.061116 -0.752788 9.282048 0.000002 0.000000 0.000003 -9.532497 0.000005 -0.000001 0.097208 -3.580042 2.293586 0.687110 -2.436677 31.491362 0.025572 -0.487900 6.000208 0.000002 -0.000004 0.000002 -9.103600 -0.043103 -1.865102 0.505398 -7.756830 4.751022 0.127287 -1.082497 13.412285 0.067490 -0.790869 9.756023 0.000002 0.000001 -0.000002 -8.076697 -0.486721 -3.806299 -11.054328 -10.332413 7.334144 0.035691 -0.576058 7.089551 0.033268 -0.556377 6.846479 0.000000 -0.000000 -0.000003 4.570404 11.014686 -2.160814 0.705441 -16.049172 -9.230066 -2.590394 -20.256381 -55.540838 -0.000011 -51.914202 -0.000003 31.047595 0.713959 39.420686 2.466095 -1.576223 2.681698 5.265084 1.232275 21.866775 3.655584 20.236969 -24.671796 2.647873 -1.528759 1.528751 -5.794953 28.657233 5.389766 1.998909 -1.154050 1.154084 0.000002 0.000000 0.000003 9.109284 -0.518007 2.259895 -0.084995 2.582484 -25.015599 0.418604 2.176707 -21.771056 0.089046 1.018671 -9.991928 0.000003 0.000001 0.000001 9.533413 0.000015 -0.000005 1.248449 7.203680 -16.327243 0.315314 1.897881 -18.865787 0.264723 1.742914 -17.273176 -0.000002 -0.000002 0.000005 9.104491 -0.042991 -1.865103 1.744999 9.579831 -14.256869 0.218284 1.585914 -15.674350 0.290254 1.822987 -18.094201 -0.000003 -0.000001 0.000002 8.077798 -0.486883 -3.806307 1.709462 10.903927 -14.076549 0.169904 1.402168 -13.818820 0.132771 1.241527 -12.209165 0.000002 -0.000000 0.000002 -8.207802 -6.751701 -1.599537 -80.943377 0.921194 -6.814510 89.202660 -9.471682 -2.474576 -1.536286 -3.646630 2.662939 -0.877658 0.000005 -0.000000 -0.000000 -0.000003 0.000000 8.207800 -6.751701 -1.599552 -79.166236 -4.223344 12.765586 82.988622 6.174733 0.243149 3.909727 -7.317118 -5.935501 -0.093983 -0.000001 -0.000000 0.000000 -0.000001 0.000000 
-0.250383 61.768822 2.907156 -5.929325 -0.848893 1.288714 -0.000000 10.181552 0.131522 9.723872 -0.298032 -1.730648 2.017371 0.107181 -0.546440 2.016990 0.136189 -0.504213 0.000000 16.740379 -2.049019 -2.970085 -0.928950 0.022558 -0.000000 9.617849 1.684977 -7.014982 -3.229909 -3.551086 0.000001 22.037384 7.501073 -0.000000 0.000001 -0.000000 -4.570002 11.014883 -2.160838 3.573307 -0.323535 13.673999 -0.241628 43.956263 50.610517 -0.000042 47.494899 0.000086 29.541179 9.505039 -39.095057 -2.464801 -1.574003 2.681911 -10.051013 -0.700685 -18.034939 4.299725 -24.466904 34.337864 -2.646256 -1.527820 1.527812 -6.562334 -38.044338 -11.386059 -1.994583 -1.151584 1.151567 0.000001 -0.000003 0.000003 -9.108303 -0.517901 2.259804 2.901388 1.074306 13.089982 0.456400 -2.012456 25.553064 0.060946 -0.751758 9.269027 -0.000000 0.000001 -0.000001 -9.532507 -0.000000 -0.000000 0.097881 -3.582421 2.323244 0.665751 -2.401479 30.985071 0.024904 -0.481472 5.921073 -0.000001 -0.000004 -0.000000 -9.103595 -0.043110 -1.865102 0.493554 -7.699883 4.674740 0.124751 -1.071849 13.277741 0.068101 -0.794364 9.799565 -0.000001 -0.000000 -0.000003 -8.076696 -0.486719 -3.806303 -11.058217 -10.317960 7.315142 0.034838 -0.569105 7.003748 0.032685 -0.551373 6.784578 -0.000005 0.000001 -0.000000 4.570399 11.014680 -2.160815 0.709404 -16.380510 -9.282102 -1.468835 -20.016207 -55.130200 0.000008 -52.953026 0.000007 30.642244 1.045040 39.636623 2.466104 -1.576197 2.681703 5.433508 1.305984 21.735457 3.538196 20.229118 -24.636072 2.647883 -1.528758 1.528751 -5.762723 28.806241 5.350205 1.998922 -1.154067 1.154081 0.000000 0.000005 -0.000002 9.109307 -0.518010 2.259901 -0.100402 2.616461 -25.252126 0.415855 2.169785 -21.698311 0.088278 1.014386 -9.949583 -0.000002 -0.000003 0.000000 9.533405 0.000016 -0.000001 1.254756 7.219933 -16.350675 0.317108 1.903129 -18.919706 0.260664 1.729791 -17.139180 0.000000 -0.000003 0.000003 9.104500 -0.042986 -1.865100 1.752489 9.608888 -14.255034 0.216719 1.580313 -15.617641 0.287090 1.813226 -17.993910 -0.000002 -0.000000 0.000001 8.077801 -0.486902 -3.806300 1.748179 10.890916 -14.057339 0.169724 1.401452 -13.811646 0.129416 1.225946 -12.053517 -0.000001 -0.000001 0.000002 -8.207801 -6.751708 -1.599537 -81.666878 1.293062 -6.929023 88.748623 -9.522149 -2.431545 -0.345972 -2.996738 2.576534 -0.842503 -0.000001 0.000002 -0.000000 0.000000 0.000000 8.207801 -6.751709 -1.599551 -79.660005 -4.125840 12.502100 82.641478 6.227047 0.245348 4.107982 -7.285460 -5.934127 -0.113793 0.000003 -0.000000 0.000000 -0.000001 0.000000 
-0.230328 61.829292 2.922189 -5.253455 -0.730411 1.253999 -0.000000 10.181549 0.131523 9.822966 -0.233637 -1.628560 1.673526 0.075454 -0.480707 1.673056 0.106112 -0.436915 0.000000 16.740376 -2.049022 -2.391505 -0.998282 0.190730 -0.000001 9.617834 1.684981 -7.018922 -3.340524 -3.903129 -0.000001 22.037384 7.501072 -0.000000 -0.000000 -0.000000 -4.570001 11.014881 -2.160842 3.543139 -0.544142 13.146958 0.192114 42.374941 51.438366 -0.000015 50.426033 0.000041 31.754789 7.516271 -38.764653 -2.464795 -1.573982 2.681910 -9.964330 -0.833674 -17.970769 4.193049 -24.448080 34.382817 -2.646262 -1.527809 1.527816 -6.564086 -37.964664 -11.356434 -1.994586 -1.151590 1.151574 -0.000004 -0.000005 -0.000005 -9.108301 -0.517869 2.259806 2.897680 1.072304 13.153338 0.458666 -2.017206 25.617888 0.060775 -0.750715 9.255974 0.000001 0.000001 0.000002 -9.532495 -0.000007 0.000002 0.098554 -3.584818 2.352903 0.646561 -2.369256 30.524112 0.024239 -0.475048 5.841955 -0.000005 0.000002 0.000001 -9.103595 -0.043098 -1.865101 0.483136 -7.652914 4.603232 0.122251 -1.061160 13.142740 0.068705 -0.797846 9.843128 -0.000000 -0.000000 -0.000003 -8.076698 -0.486712 -3.806298 -11.062078 -10.303705 7.296093 0.033983 -0.562166 6.917949 0.032091 -0.546367 6.722666 -0.000001 -0.000000 0.000003 4.570402 11.014692 -2.160816 0.711809 -16.517542 -9.297905 -0.528317 -19.834109 -54.974755 0.000023 -54.052461 0.000023 30.496463 1.346433 39.889507 2.466102 -1.576209 2.681703 5.601865 1.378855 21.603605 3.420808 20.221214 -24.600455 2.647888 -1.528740 1.528751 -5.730499 28.955265 5.310532 1.998916 -1.154069 1.154079 0.000002 0.000000 0.000003 9.109296 -0.518012 2.259898 -0.115967 2.650024 -25.488697 0.413104 2.162902 -21.625603 0.087543 1.010113 -9.907233 0.000001 0.000001 0.000000 9.533407 0.000016 0.000001 1.261046 7.236174 -16.374118 0.318904 1.908348 -18.973618 0.256628 1.716690 -17.005197 0.000003 -0.000002 0.000001 9.104505 -0.043006 -1.865101 1.759992 9.637956 -14.253220 0.215155 1.574738 -15.561008 0.283912 1.803460 -17.893654 -0.000001 -0.000001 0.000004 8.077810 -0.486886 -3.806305 1.787034 10.878435 -14.038101 0.169551 1.400720 -13.804378 0.126113 1.210353 -11.897839 -0.000001 -0.000001 0.000005 -8.207802 -6.751700 -1.599543 -82.827436 2.388650 -7.141212 88.026918 -8.360158 -2.310477 2.049489 -2.089928 3.885416 -0.720970 -0.000002 -0.000000 0.000000 -0.000000 0.000000 8.207801 -6.751698 -1.599551 -80.265398 -4.183944 12.358235 82.460737 6.266767 0.245913 4.210953 -7.268898 -5.933081 -0.102472 -0.000004 0.000001 0.000000 -0.000000 0.000000 
-0.180042 61.822754 2.997142 -4.454847 -0.644240 1.205646 0.000000 10.181543 0.131521 9.929760 -0.158644 -1.541401 1.353062 0.077578 -0.403628 1.352631 0.109326 -0.358057 0.000000 16.740374 -2.049018 -1.936465 -1.060959 0.334404 -0.000001 9.617846 1.684975 -7.117008 -3.436799 -4.319337 0.000000 22.037369 7.501077 -0.000000 0.000000 0.000000 -4.569996 11.014879 -2.160838 3.480651 -0.706514 12.545657 0.328507 41.143895 52.519852 -0.000030 52.425250 0.000060 33.731292 5.804497 -38.346004 -2.464800 -1.573989 2.681909 -9.877723 -0.966471 -17.906138 4.086591 -24.429341 34.427992 -2.646262 -1.527811 1.527811 -6.564155 -37.884894 -11.325385 -1.994587 -1.151590 1.151564 -0.000001 -0.000002 0.000005 -9.108296 -0.517887 2.259806 2.893983 1.070307 13.216688 0.460959 -2.021966 25.682667 0.060599 -0.749646 9.242971 -0.000001 0.000001 0.000002 -9.532495 0.000017 0.000002 0.099231 -3.587206 2.382543 0.629693 -2.340445 30.113819 0.023595 -0.468668 5.762797 -0.000002 -0.000002 0.000003 -9.103596 -0.043108 -1.865101 0.474270 -7.617187 4.536889 0.119747 -1.050411 13.007377 0.069319 -0.801352 9.886691 0.000002 0.000001 -0.000001 -8.076692 -0.486701 -3.806302 -11.066009 -10.288633 7.277256 0.033140 -0.555220 6.832135 0.031516 -0.541365 6.660759 0.000003 0.000001 -0.000000 4.570402 11.014677 -2.160815 0.719780 -16.362748 -9.195053 0.325985 -19.996639 -54.950774 -0.000006 -55.255479 0.000018 30.475604 1.693996 40.211861 2.466110 -1.576219 2.681695 5.770160 1.450856 21.471226 3.303413 20.213260 -24.564953 2.647885 -1.528757 1.528750 -5.698277 29.104293 5.270778 1.998918 -1.154084 1.154079 -0.000002 0.000001 -0.000004 9.109303 -0.518014 2.259899 -0.131664 2.683241 -25.725310 0.410365 2.155970 -21.552892 0.086800 1.005864 -9.864859 0.000000 -0.000000 0.000005 9.533408 -0.000003 -0.000000 1.267365 7.252451 -16.397566 0.320698 1.913568 -19.027546 0.252638 1.703567 -16.871196 0.000001 -0.000001 0.000002 9.104500 -0.043005 -1.865100 1.767433 9.666885 -14.251407 0.213588 1.569110 -15.503988 0.280777 1.793688 -17.793377 0.000001 -0.000001 0.000001 8.077805 -0.486899 -3.806302 1.825897 10.866001 -14.018857 0.169459 1.400374 -13.800728 0.122853 1.194751 -11.742169 -0.000001 -0.000001 0.000004 -8.207800 -6.751706 -1.599541 -83.562822 3.554856 -7.340359 86.670845 -7.438175 -2.156812 3.742672 -1.198255 4.905626 -0.526791 -0.000005 -0.000001 0.000000 0.000000 0.000000 8.207799 -6.751711 -1.599547 -81.070753 -4.288094 12.210052 82.440691 6.321757 0.245722 4.239025 -7.232737 -5.961842 -0.102484 0.000002 -0.000001 0.000000 -0.000000 0.000000 
